PathFileType	3	(X/Y/Z)	C:\Users\koon_\Desktop\
DataRate	CameraRate	NumFrames	NumMarkers	Units	OrigDataRate	OrigDataStartFrame	OrigNumFrames
100.0	100.0	9	27	mm	100.0	2977	4762	
Frame#	Time	get:LFHD			get:RFHD			get:LBHD			get:RBHD			get:C7			get:T10			get:CLAV			get:STRN			get:RBAK			get:LSHO			get:LUPA			get:LELB			get:LFRA			get:LWRA			get:LWRB			get:LFIN			get:RSHO			get:RUPA			get:RELB			get:RFRA			get:RWRA			get:RWRB			get:RFIN			get:LASI			get:RASI			get:LPSI			get:RPSI			
		X1	Y1	Z1	X2	Y2	Z2	X3	Y3	Z3	X4	Y4	Z4	X5	Y5	Z5	X6	Y6	Z6	X7	Y7	Z7	X8	Y8	Z8	X9	Y9	Z9	X10	Y10	Z10	X11	Y11	Z11	X12	Y12	Z12	X13	Y13	Z13	X14	Y14	Z14	X15	Y15	Z15	X16	Y16	Z16	X17	Y17	Z17	X18	Y18	Z18	X19	Y19	Z19	X20	Y20	Z20	X21	Y21	Z21	X22	Y22	Z22	X23	Y23	Z23	X24	Y24	Z24	X25	Y25	Z25	X26	Y26	Z26	X27	Y27	Z27	
2977	29.76	106.70425	1558.8684	-18.597586	-34.331375	1557.1293	-24.454742	89.772514	1553.2096	-179.85196	-38.857914	1525.8923	-188.56264	52.812263	1335.4204	-198.78963	41.954365	1125.9584	-228.21622	24.898592	1270.0912	-2.7312708	25.722437	1078.505	47.845009	-28.940165	1263.3438	-228.2137	161.45226	1339.8203	-100.19391	250.63965	1278.8298	-14.479229	303.73361	1176.6681	144.19464	202.73248	1122.2006	255.79103	177.29994	1051.7919	299.63376	231.49658	1099.6642	342.77258	140.2283	1074.6163	379.42474	-86.877258	1342.432	-124.60678	-246.4277	1168.0741	-149.85474	-289.89706	1088.4104	-240.44005	-319.74835	1019.9351	-171.43336	-344.72714	859.29547	-208.24391	-397.19211	901.04169	-254.53159	-421.79938	817.2937	-203.44489	154.81229	887.84662	14.617085	-112.14808	874.02979	1.5930386	72.132339	945.41632	-205.14471	-17.656504	943.38922	-210.54187
2978	29.77	106.88344	1558.7806	-18.520491	-34.16048	1557.1489	-24.282358	89.890388	1553.171	-179.7753	-38.754627	1525.9312	-188.40077	52.95932	1335.3113	-198.37788	42.163193	1125.9794	-227.87317	24.62956	1270.147	-2.4916782	25.460409	1079.0067	48.764229	-28.590574	1263.5331	-228.1769	161.33627	1339.8375	-99.887688	249.93837	1279.344	-13.717133	301.07755	1177.7108	146.12569	196.80269	1123.5054	255.01445	169.55597	1053.2089	298.43533	222.68225	1101.4802	343.00601	129.71477	1076.4583	375.9949	-87.060532	1342.4628	-124.59802	-244.94446	1167.1594	-153.0143	-286.07825	1088.0024	-245.53957	-315.25323	1017.8869	-177.8868	-336.59149	857.06482	-217.36856	-389.60437	898.65601	-263.41696	-412.64792	813.02124	-213.57024	155.01076	887.80865	14.678259	-111.9288	873.93036	1.9376305	71.820038	945.41931	-204.88391	-17.996136	943.38312	-209.95233
2979	29.78	107.07019	1558.7219	-18.419571	-33.972206	1557.1554	-24.134075	89.986237	1553.1066	-179.66739	-38.705296	1525.9133	-188.16833	53.123226	1335.401	-198.24792	42.341579	1126.04	-227.51472	24.35075	1270.2008	-2.4013457	26.153227	1078.5262	47.606869	-28.308804	1263.7422	-228.02789	161.23109	1339.851	-99.573982	249.27565	1279.8171	-12.912092	298.61115	1178.7769	147.90147	190.99632	1124.8279	253.95125	161.91234	1054.6425	296.83026	213.96956	1103.2302	342.88898	119.98639	1078.2925	372.79919	-87.271057	1342.5017	-124.63329	-243.40479	1166.269	-155.81747	-282.18097	1087.6713	-250.5762	-310.55615	1015.9093	-184.20404	-327.8316	855.2514	-226.38831	-381.9696	896.3833	-271.7522	-403.35355	809.83099	-223.97209	155.19379	887.78064	14.68775	-111.713	873.83337	2.5113344	71.502174	945.42053	-204.63715	-18.373655	943.40118	-209.54532
2980	29.79	107.2365	1558.6603	-18.307379	-33.83374	1557.1782	-23.936508	90.070473	1553.0757	-179.56084	-38.6721	1525.9419	-188.01027	53.334084	1335.5181	-198.13614	42.543217	1126.103	-227.24728	24.086611	1270.2406	-2.2204583	26.084589	1078.5587	47.891205	-28.044914	1263.9369	-227.84389	161.14737	1339.8904	-99.202087	248.66994	1280.2455	-12.141589	296.26337	1179.7408	149.61508	185.05411	1126.1077	253.88878	154.04254	1056.329	295.41516	205.42168	1104.8777	342.42532	110.77984	1080.0824	369.90894	-87.466202	1342.5613	-124.62855	-241.46669	1165.0961	-159.69713	-278.3598	1087.5593	-255.52643	-305.80646	1014.2072	-189.38734	-318.80972	853.46204	-234.66824	-373.67303	893.92169	-279.64804	-393.06998	805.99048	-233.32172	155.38797	887.75568	14.740281	-111.5406	873.75403	3.2362061	71.188652	945.38605	-204.3512	-18.678722	943.38721	-209.255
2981	29.8	107.3518	1558.6448	-18.207651	-33.71936	1557.2019	-23.779108	90.092529	1553.0393	-179.44983	-38.623188	1525.9301	-187.76923	53.47287	1335.4838	-197.71602	42.736126	1126.1953	-226.91853	23.79878	1270.3009	-2.0404327	26.008623	1078.5782	48.123795	-27.723286	1264.1233	-227.66327	161.05544	1339.9133	-98.858025	248.14653	1280.6664	-11.467779	293.98511	1180.6815	151.0986	179.53523	1127.5457	252.58133	146.65976	1057.9032	293.65973	197.0421	1106.5115	342.41299	101.62427	1082.0233	366.31485	-87.586098	1342.6399	-124.55133	-240.14043	1164.7344	-160.87109	-274.50064	1087.5436	-260.32794	-300.52881	1012.4477	-196.04541	-309.28491	852.00018	-242.67007	-365.04993	891.7099	-287.30069	-382.44168	802.63745	-242.37215	155.50284	887.46021	14.872479	-111.42371	873.63849	3.4937274	70.891068	945.35474	-204.12657	-18.970219	943.37244	-208.81371
2982	29.81	107.49356	1558.6388	-18.05541	-33.611603	1557.1925	-23.628128	90.142113	1552.9874	-179.33336	-38.587387	1525.9233	-187.63286	53.648796	1335.519	-197.33195	42.910587	1126.3022	-226.55173	23.444668	1270.321	-1.8483901	25.941984	1078.6583	48.353931	-27.4086	1264.3639	-227.49626	160.98297	1339.9349	-98.466621	247.69525	1281.0361	-10.828287	291.91589	1181.5479	152.65604	174.85121	1128.6927	249.44296	140.12454	1058.7871	290.6153	188.82169	1108.0765	341.38675	92.278534	1083.8875	361.42236	-87.738403	1342.7625	-124.5052	-237.93353	1163.6776	-165.44125	-270.61768	1087.5837	-264.9556	-295.11594	1010.9418	-201.64326	-299.50427	850.69391	-250.11778	-355.90012	889.38507	-294.47104	-371.4277	799.71118	-250.79686	155.3548	887.60419	14.900546	-111.65179	873.79474	6.1559792	70.584938	945.37299	-203.95515	-19.18582	943.69238	-208.93414
2983	29.82	107.57485	1558.6388	-17.965937	-33.55875	1557.1864	-23.485115	90.169586	1552.976	-179.20262	-38.557926	1525.8838	-187.43018	53.841305	1335.5549	-196.97896	43.078121	1126.4237	-226.23776	23.146114	1270.402	-1.704438	25.811756	1078.7638	48.568565	-27.093798	1264.6758	-227.36691	160.92938	1339.9462	-98.000664	247.32556	1281.3519	-10.153671	289.77377	1182.3759	154.0004	169.70575	1129.9867	247.90643	132.98482	1060.2698	287.87183	180.96664	1109.4246	339.85196	83.698532	1085.8136	357.45612	-87.837311	1342.9089	-124.44596	-236.1376	1163.0226	-168.36589	-266.74152	1087.7529	-269.39893	-289.60779	1009.6398	-207.02776	-289.38229	849.57983	-256.89926	-346.62738	887.18573	-301.28912	-359.74762	796.4845	-258.69647	155.4301	887.63037	14.924384	-111.39187	873.41864	4.9547086	70.310661	945.4176	-203.79811	-19.551165	943.59363	-208.45396
2984	29.83	107.62835	1558.6564	-17.787766	-33.521046	1557.1934	-23.319113	90.201004	1552.9213	-179.05118	-38.554375	1525.8167	-187.25488	54.051022	1335.6674	-196.71365	43.223492	1126.5804	-225.93205	22.833361	1270.4072	-1.4532738	25.655531	1078.8179	48.769123	-26.651814	1265.021	-227.21873	160.85014	1339.9471	-97.605812	246.9371	1281.6779	-9.4674234	287.8074	1183.1383	155.39343	164.47917	1131.3851	247.36513	125.78988	1062.1306	285.57269	173.49167	1110.7869	338.43027	75.446075	1087.8193	353.21002	-87.951103	1343.0641	-124.32092	-234.16739	1162.4697	-171.22014	-262.83292	1087.9342	-273.77148	-283.93341	1008.3676	-212.33069	-278.86841	848.70233	-263.2627	-337.0769	884.96851	-307.51865	-347.78476	793.74933	-266.12491	155.50139	887.60382	14.978556	-111.2532	873.27588	5.9869976	69.998863	945.42816	-203.58102	-19.864119	943.56378	-208.021
2985	29.84	107.681	1558.6578	-17.638454	-33.484402	1557.161	-23.177143	90.232147	1552.8853	-178.92326	-38.5079	1525.7616	-187.07762	54.265831	1335.7382	-196.32875	43.397488	1126.7725	-225.67023	22.532503	1270.4244	-1.2184767	25.535669	1078.6321	49.071724	-26.208044	1265.4119	-227.09247	160.79306	1339.9275	-97.189255	246.6279	1281.9606	-8.8330126	285.88071	1183.8385	156.60208	160.73087	1132.3699	242.19272	120.02171	1062.5292	280.71301	165.69209	1111.9658	335.94647	67.725639	1089.8745	349.19138	-88.034454	1343.2439	-124.16162	-232.23466	1161.9655	-174.00839	-258.95999	1088.1031	-277.78366	-278.15179	1007.2365	-217.2672	-268.06235	848.03735	-269.10999	-327.48227	882.91815	-313.25253	-335.16385	790.88239	-272.38751	155.5287	887.59229	15.069387	-111.16905	873.20056	6.5156298	69.715469	945.42566	-203.38719	-20.170042	943.5661	-207.68018
